M48
METRIC,LZ
VER,1
FMAT,2
T01C0.3F042B423S6H2000
T02C0.381F042B423S6H2000
T03C0.7F042B423S6H2000
T04C0.75F042B423S6H2000
T05C0.85F042B423S6H2000
DETECT,ON
ATC,ON
%
T01
X00695Y0007
X0007Y0036
Y0056
X005275Y006025
X003875Y00745
X006275Y008125
X000825Y011575
X002975Y012925
X006975Y013225
X000825Y013575
X006975Y01435
Y0153
X0007Y0161
X006975Y01625
X0007Y01805
X002825Y019525
X0007Y020425
X005275Y02195
X0007Y022225
Y024
Y026
X002725Y02685
X0007Y028625
Y03025
Y031825
X002725Y033275
X005225
X00655Y034225
X00455
X00155
X00255
X00355
X0007
X00555
X01055
X01155
X01255
X00755
X00855
X00955
X01305Y033675
X01205
X01105
X01255Y033125
X01155
X01055
X01305Y032575
X01205
X01105
X01255Y032025
X01155
X01055
X01305Y031475
X01205
X01105
X01255Y030925
X01155
X01305Y030375
X01205
X01255Y029825
X00735Y02955
X01Y0289
X01125Y02765
Y02465
X01065Y0234
X011275Y022325
X0087Y02185
X011375Y02115
X013Y02095
X01Y0204
X01265Y019875
X01Y01925
X007675Y016925
X013275Y015425
X01045Y012
X008775Y009825
X011575Y008
X00725Y007375
X0114Y005775
X01045Y004875
X012075Y003825
X010475Y00325
X008675
X012742Y001142
X01495Y00165
X019725Y00325
X0136Y003425
X0174Y0035
X01625Y003825
X01495Y004125
X01625Y005475
X015075Y006275
X017Y008075
X0165Y0096
X013775Y009825
X016825Y0121
X018775Y012325
X013775
X015775Y016125
X016825Y019
X013975Y019025
X0196Y0197
X0185Y0204
X01745Y02145
X01425Y02215
X01725Y02465
X01425
X017875Y0254
X019125Y0259
X017875Y0264
X019125Y0269
X017875Y0274
X016Y027725
X017
X013775Y0281
X0145Y02825
X0155Y028275
X0165
X0175
X0192Y02875
X018475Y029
X015975Y029725
X016975
X017975
X018975
X01355Y029825
X017475Y030275
X018475
X016475
X01405Y030375
X015975Y030825
X017975
X016975
X018975
X01355Y030925
X019475Y031375
X017475
X018475
X016475
X01405Y031475
X018975Y031925
X017975
X015975
X016975
X01355Y032025
X016475Y032475
X019475
X017475
X018475
X01405Y032575
X01355Y033125
X01405Y033675
X01955Y034225
X01555
X01455
X01355
X01655
X01855
X01755
X02455
X02355
X02155
X02255
X02055
X02555
X024475Y032475
X023475
X022475
X025475
X020475
X021475
X019975Y031925
X020975
X024975
X023975
X021975
X022975
X025028Y028353
X023775Y027325
X021275
Y024825
X023775
X021275Y022325
X023775
Y019825
X019925Y01495
X0199Y0142
X023025Y013825
X0199Y01345
X0208Y013025
X02065Y010825
Y01
X0248Y00955
Y00875
X02065Y008225
X0248Y00795
Y00645
X0257Y006075
Y004925
X021725Y00325
X0293Y00965
X028025Y01075
X0293Y01115
Y0128
X027Y013125
X0293Y01525
Y01715
X026275Y017325
X0293Y01915
X026275Y019825
X0293Y02115
X026275Y022325
X0293Y02315
X026275Y024825
X0293Y02515
Y02715
X026478Y028528
X0293Y02915
X027853Y029878
X0293Y03115
X028003Y031253
X026275Y032025
X028425
X0293Y03215
X02735Y03235
X0293Y03315
Y03415
X02655Y034225
X02755
T02
X00355Y001275
X0015Y008425
Y009925
X002575Y0229
Y0244
Y0259
X008875Y030675
X011Y019625
X017625Y008925
X018975Y007125
X0185Y005025
X019Y0041
X02315Y0033
X026Y01555
T03
X002Y016225
Y017925
T04
X00509Y00127
X02491
T05
X002475Y030225
X005475
M30
