G04 CAM350 V10.0.1 (Build 316) Date:  Thu Apr 11 13:25:31 2019 *
G04 Database: C:\PADS Projects\Cam\ZGM130-PCB\ZGM130-Si7210_r2_0.cam *
G04 Layer 6: ZGM130-PCB_SSS.PHO *
%FSTAX33Y33*%
%MOMM*%
%SFA1.000B1.000*%

%MIA0B0*%
%IPPOS*%
%ADD10C,0.12700*%
%ADD12C,0.25400*%
%ADD59C,0.25000*%
%ADD78C,0.17780*%
%LNZGM130-PCB_SSS.PHO*%
%LPD*%
G36*
X006469Y006687D02*
G01X006512Y006709D01*
X006544Y00672*
X006598Y006698*
X00662Y006676*
X006652Y006633*
Y006709*
X00676*
Y006148*
X006641*
Y006429*
X006631Y006504*
X00662Y006547*
X006609Y006569*
X006566Y00659*
X006534Y006579*
X006512Y006569*
X006469Y006687*
G37*
G36*
X008678Y006148D02*
G01X0087Y006224D01*
X00871Y006267*
Y00659*
X008753Y006676*
X008786Y006698*
X008829Y006709*
X008904Y00672*
X00898Y006709*
X009034Y006676*
X009077Y006623*
X009098Y006547*
X00898Y006526*
X008969Y006558*
X008947Y006579*
X008904Y006601*
X008861Y00659*
X00884Y006569*
X008829Y006547*
Y006515*
X008872Y006493*
X008947Y006482*
X009001Y006461*
X009044Y006439*
X009087Y006385*
X009109Y006299*
X009098Y006235*
X009066Y006181*
X009012Y006148*
X008958Y006138*
X008883Y006159*
X008807Y006213*
X008796Y006148*
X008678*
G37*
G36*
X006857Y006385D02*
G01Y006407D01*
X006868Y006547*
X006921Y006644*
X006975Y006689*
X006986Y006698*
X007072Y00672*
X007159Y006698*
X007223Y006644*
X007266Y006547*
X007288Y006429*
X007266Y006299*
X007223Y006202*
X007159Y006148*
X007062Y006138*
X006997Y006148*
X006943Y006181*
X0069Y006235*
X006868Y00631*
X006986Y006332*
X007018Y006278*
X007062Y006256*
X007105Y006267*
X007137Y006289*
X007159Y006332*
X007169Y006385*
X006857*
G37*
G36*
X00278Y008216D02*
G01Y008578D01*
X00293*
X003323*
X003473*
Y008216*
X003323*
X00293*
X00278*
G37*
G36*
X002082D02*
G01Y008578D01*
X002232*
X002625*
X002775*
Y008216*
X002625*
X002232*
X002082*
G37*
G36*
X002595Y000898D02*
G01Y001829D01*
X002712*
X00275Y001752*
X002802Y001687*
X002867Y001635*
X002931Y001596*
Y001441*
X002828Y001493*
X002737Y001571*
Y000898*
X002595*
G37*
G36*
X007342Y006429D02*
G01X007353Y006558D01*
X007396Y006644*
X00746Y006698*
X007536Y00672*
X007622Y006698*
X007687Y006623*
Y006709*
X007794*
Y005933*
X007676*
Y006224*
X007643Y006181*
X007611Y006159*
X007536Y006138*
X00746Y006159*
X007396Y006213*
X007353Y00631*
X007342Y006429*
G37*
G36*
X009174Y006795D02*
G01Y006924D01*
X009659*
Y006795*
X009475*
Y006148*
X009357*
Y006795*
X009174*
G37*
G36*
X007913Y006148D02*
G01Y006579D01*
X007934Y006633*
X007988Y006698*
X008021Y006709*
X008064Y00672*
X008107Y006709*
X008139Y006698*
X008204Y006633*
X008225Y006666*
X008258Y006698*
X008344Y00672*
X008419Y006698*
X008484Y006633*
Y006709*
X008592*
Y006148*
X008473*
Y006482*
X008462Y006526*
X00843Y006579*
X008376Y006601*
X008344Y00659*
X008322Y006569*
X008312Y006526*
Y006148*
X008193*
Y006418*
X008182Y006504*
X008171Y006558*
X008139Y00659*
X008096Y006601*
X008064Y00659*
X008042Y006569*
X008031Y006536*
Y006148*
X007913*
G37*
G36*
X019577Y008448D02*
G01Y008603D01*
X019965*
Y009379*
X020107*
Y008448*
X019577*
G37*
G36*
X015729Y006698D02*
G01Y006853D01*
X016117*
Y007629*
X016259*
Y006698*
X015729*
G37*
G36*
X019759Y004798D02*
G01Y004953D01*
X020147*
Y005729*
X02029*
Y004798*
X019759*
G37*
G36*
X016375Y006698D02*
G01Y006853D01*
X016763*
Y007629*
X016906*
Y006698*
X016375*
G37*
G36*
X008273Y02742D02*
G01Y027562D01*
X009049*
Y027782*
X009204*
Y0272*
X009049*
Y02742*
X008273*
G37*
G36*
X018879Y008448D02*
G01Y008603D01*
X019318*
Y008862*
X018918*
Y009004*
X019318*
Y009224*
X018892*
Y009379*
X019461*
Y008448*
X018879*
G37*
G36*
X002966Y026177D02*
G01Y026332D01*
X003548*
Y026177*
X003328*
Y025401*
X003186*
Y026177*
X002966*
G37*
G36*
X008273Y029541D02*
G01Y029683D01*
X008622*
Y029916*
X008648Y029993*
X008687Y030045*
X008739Y030097*
X008778Y03011*
X008816Y030123*
X00892Y030136*
X00901Y030123*
X009101Y030097*
X009153Y030045*
X009191Y029981*
X009204Y029903*
Y029541*
X008273*
G37*
G36*
X028717Y016395D02*
G01X02873Y016485D01*
X028756Y016576*
X028807Y016628*
X028859Y016659*
X028872Y016666*
X02895Y016679*
X029312*
Y015748*
X029169*
Y016097*
X028937*
X028859Y016123*
X028807Y016162*
X028756Y016214*
X02873Y016291*
X028717Y016395*
G37*
G36*
X017824Y006698D02*
G01Y007629D01*
X017966*
Y007254*
X018289*
Y007629*
X018431*
Y006698*
X018289*
Y007099*
X017966*
Y006698*
X017824*
G37*
G36*
X024438Y002848D02*
G01Y003779D01*
X024581*
Y003159*
X024891Y003779*
X025046*
Y002848*
X024904*
Y003456*
X024593Y002848*
X024438*
G37*
G36*
X02365Y003184D02*
G01Y00343D01*
X023675Y003534*
X023701Y003611*
X02374Y003676*
X023792Y003728*
X023843Y003753*
X023908Y003766*
X023999Y003779*
X024283*
Y002848*
X023908*
X023843Y002874*
X023792Y0029*
X02374Y002952*
X023701Y003016*
X023675Y003094*
X02365Y003184*
G37*
G36*
X020246Y004034D02*
G01Y00428D01*
X020271Y004384*
X020297Y004461*
X020336Y004526*
X020388Y004578*
X02044Y004603*
X020504Y004616*
X020595Y004629*
X020879*
Y003698*
X020504*
X02044Y003724*
X020388Y00375*
X020336Y003802*
X020297Y003866*
X020271Y003944*
X020246Y004034*
G37*
G36*
X00879Y032612D02*
G01Y032858D01*
X008816Y032962*
X008842Y033039*
X00888Y033104*
X008932Y033156*
X008984Y033181*
X009048Y033194*
X009139Y033207*
X009423*
Y032276*
X009048*
X008984Y032302*
X008932Y032328*
X00888Y03238*
X008842Y032444*
X008816Y032522*
X00879Y032612*
G37*
G36*
X008027Y032548D02*
G01X00804Y032612D01*
X008066Y032677*
X008104Y032729*
X008156Y032768*
X008117Y032794*
X008079Y032845*
X008053Y03291*
Y032975*
X008066Y033039*
X008092Y033104*
X00813Y033156*
X008169Y033181*
X008195Y033186*
X008247Y033194*
X00835Y033207*
X00866*
Y032276*
X008221*
X008195Y032289*
X00813Y032315*
X008079Y032367*
X00804Y032444*
X008027Y032548*
G37*
G36*
X004389Y025673D02*
G01X004402Y025737D01*
X004428Y025802*
X004466Y025854*
X004518Y025893*
X004479Y025919*
X00444Y02597*
X004415Y026035*
Y0261*
X004428Y026164*
X004453Y026229*
X004492Y026281*
X004531Y026306*
X004557Y026311*
X004609Y026319*
X004712Y026332*
X005022*
Y025401*
X004583*
X004557Y025414*
X004492Y02544*
X00444Y025492*
X004402Y025569*
X004389Y025673*
G37*
G36*
X00252Y021712D02*
G01Y021958D01*
X002546Y022062*
X002572Y022139*
X00261Y022204*
X002662Y022256*
X002714Y022281*
X002778Y022294*
X002869Y022307*
X003153*
Y021376*
X002778*
X002714Y021402*
X002662Y021428*
X00261Y02148*
X002572Y021544*
X002546Y021622*
X00252Y021712*
G37*
G36*
X001757Y021648D02*
G01X00177Y021712D01*
X001796Y021777*
X001834Y021829*
X001886Y021868*
X001847Y021894*
X001809Y021945*
X001783Y02201*
Y022075*
X001796Y022139*
X001822Y022204*
X00186Y022256*
X001899Y022281*
X001925Y022286*
X001977Y022294*
X00208Y022307*
X00239*
Y021376*
X001951*
X001925Y021389*
X00186Y021415*
X001809Y021467*
X00177Y021544*
X001757Y021648*
G37*
G36*
X018116Y008784D02*
G01Y00903D01*
X018142Y009134*
X018168Y009211*
X018206Y009276*
X018258Y009328*
X01831Y009353*
X018375Y009366*
X018465Y009379*
X01875*
Y008448*
X018375*
X01831Y008474*
X018258Y0085*
X018206Y008552*
X018168Y008616*
X018142Y008694*
X018116Y008784*
G37*
G36*
X003817Y024287D02*
G01Y024533D01*
X003843Y024637*
X003869Y024714*
X003908Y024779*
X003959Y024831*
X004011Y024856*
X004076Y024869*
X004166Y024882*
X004451*
Y023951*
X004076*
X004011Y023977*
X003959Y024003*
X003908Y024055*
X003869Y024119*
X003843Y024197*
X003817Y024287*
G37*
G36*
X003054D02*
G01Y024533D01*
X00308Y024637*
X003106Y024714*
X003145Y024779*
X003197Y024831*
X003248Y024856*
X003313Y024869*
X003403Y024882*
X003688*
Y023951*
X003313*
X003248Y023977*
X003197Y024003*
X003145Y024055*
X003106Y024119*
X00308Y024197*
X003054Y024287*
G37*
G36*
X020996Y00397D02*
G01Y004047D01*
X021021Y004112*
X02106Y004164*
X021099Y004203*
X021177Y004241*
X021267Y00428*
X021358Y004306*
X021409Y004332*
X021435Y004358*
X021448Y004396*
X021435Y004435*
X021409Y004461*
X021371Y004474*
X021306Y004487*
X021241Y004474*
X021203Y004461*
X021164Y004422*
X021151Y004358*
X021009Y004371*
X021034Y004487*
X021086Y004565*
X021177Y004629*
X021306Y004642*
X021461Y004616*
X021513Y004578*
X021552Y004513*
X021578Y004461*
X02159Y004384*
X021578Y004319*
X021565Y004267*
X021487Y004177*
X021435Y004138*
X021345Y004112*
X021254Y004073*
X021203Y00406*
X021151Y004021*
X021138Y00397*
X021151Y003918*
X021177Y003879*
X021228Y003853*
X021293Y00384*
X021371Y003853*
X021422Y003879*
X021448Y003944*
X021474Y004021*
X021616Y004009*
X02159Y003866*
X021526Y003763*
X021422Y003711*
X021306Y003685*
X021164Y003698*
X021073Y003763*
X021009Y003853*
X020996Y00397*
G37*
G36*
X021169Y00507D02*
G01Y005147D01*
X021195Y005212*
X021234Y005264*
X021272Y005303*
X02135Y005341*
X02144Y00538*
X021531Y005406*
X021583Y005432*
X021609Y005458*
X021621Y005496*
X021609Y005535*
X021583Y005561*
X021544Y005574*
X021479Y005587*
X021415Y005574*
X021376Y005561*
X021337Y005522*
X021324Y005458*
X021182Y005471*
X021208Y005587*
X021259Y005665*
X02135Y005729*
X021479Y005742*
X021634Y005716*
X021686Y005678*
X021725Y005613*
X021751Y005561*
X021764Y005484*
X021751Y005419*
X021738Y005367*
X02166Y005277*
X021609Y005238*
X021518Y005212*
X021428Y005173*
X021376Y00516*
X021324Y005121*
X021311Y00507*
X021324Y005018*
X02135Y004979*
X021402Y004953*
X021466Y00494*
X021544Y004953*
X021596Y004979*
X021621Y005044*
X021647Y005121*
X02179Y005109*
X021764Y004966*
X021699Y004863*
X021596Y004811*
X021479Y004785*
X021337Y004798*
X021246Y004863*
X021182Y004953*
X021169Y00507*
G37*
G36*
X020419Y005083D02*
G01X020561Y005134D01*
X020587Y005044*
X020626Y004992*
X020678Y004953*
X020742Y00494*
X02082Y004953*
X020884Y005018*
X02091Y005057*
X020923Y005109*
X020936Y005186*
Y005264*
X020923Y005419*
X020884Y005509*
X02082Y005561*
X020729Y005587*
X020678Y005574*
X020626Y005548*
X020587Y005496*
X020561Y005432*
X020419Y005471*
X020458Y005574*
X020509Y005652*
X0206Y005716*
X020716Y005742*
X020794Y005729*
X020859Y005716*
X020923Y005678*
X020975Y005626*
X021053Y005471*
X021065Y005367*
X021078Y005251*
X021065Y005147*
X021053Y005057*
X021014Y004966*
X020975Y004902*
X020923Y00485*
X020871Y004811*
X020807Y004798*
X020729Y004785*
X020626Y004798*
X020535Y00485*
X020471Y004953*
X020419Y005083*
G37*
G36*
X018958Y004798D02*
G01X019268Y00538D01*
X018971Y005729*
X019152*
X019501Y005277*
Y005729*
X019643*
Y004798*
X019501*
Y005083*
X019371Y005238*
X019165Y004798*
X018958*
G37*
G36*
X027915Y015748D02*
G01X028006Y015929D01*
X028057Y01602*
X028096Y016084*
X028187Y016162*
X028096Y016188*
X028031Y01624*
X027993Y016317*
X02798Y016421*
X027993Y016498*
X028018Y016563*
X028057Y016615*
X028096Y016653*
X028122Y016658*
X028174Y016666*
X028277Y016679*
X0286*
Y015748*
X028458*
Y016136*
X028381*
X028342Y016123*
X028303Y016084*
X028264Y016033*
X028225Y015942*
X028122Y015748*
X027915*
G37*
G36*
X009501Y033207D02*
G01X009643D01*
X009837Y032522*
X01007Y033207*
X010212*
X009915Y032276*
X009773*
X009501Y033207*
G37*
G36*
X0051Y026332D02*
G01X005242D01*
X005436Y025647*
X005669Y026332*
X005811*
X005514Y025401*
X005372*
X0051Y026332*
G37*
G36*
X003231Y022307D02*
G01X003373D01*
X003567Y021622*
X0038Y022307*
X003942*
X003645Y021376*
X003503*
X003231Y022307*
G37*
G36*
X004528Y024882D02*
G01X004671D01*
X004865Y024197*
X005097Y024882*
X00524*
X004942Y023951*
X0048*
X004528Y024882*
G37*
G36*
X026325Y015878D02*
G01Y016253D01*
X026661*
Y016097*
X026467*
Y015968*
X026557Y015916*
X026661Y01589*
X026751Y015903*
X026829Y015968*
X026881Y016071*
X026893Y016227*
X026881Y016356*
X026829Y016459*
X026751Y016511*
X026661Y016537*
X026596Y016524*
X026544Y016498*
X026506Y016446*
X02648Y016382*
X026337Y016408*
X026376Y016524*
X026441Y016615*
X026531Y016679*
X026661Y016692*
X026764Y016679*
X026855Y01664*
X026932Y016576*
X026984Y016472*
X027023Y016356*
X027036Y016214*
X027023Y016071*
X026984Y015955*
X026919Y015852*
X026855Y015787*
X026751Y015748*
X026648Y015735*
X026557Y015748*
X026467Y015774*
X026389Y015826*
X026325Y015878*
G37*
G36*
X007212Y032406D02*
G01Y032781D01*
X007548*
Y032625*
X007354*
Y032496*
X007445Y032444*
X007548Y032419*
X007639Y032431*
X007717Y032496*
X007768Y0326*
X007781Y032755*
X007768Y032884*
X007717Y032987*
X007639Y033039*
X007548Y033065*
X007484Y033052*
X007432Y033026*
X007393Y032975*
X007367Y03291*
X007225Y032936*
X007264Y033052*
X007329Y033143*
X007419Y033207*
X007548Y03322*
X007652Y033207*
X007742Y033169*
X00782Y033104*
X007872Y033*
X00791Y032884*
X007923Y032742*
X00791Y0326*
X007872Y032483*
X007807Y03238*
X007742Y032315*
X007639Y032276*
X007535Y032263*
X007445Y032276*
X007354Y032302*
X007277Y032354*
X007212Y032406*
G37*
G36*
X000942Y021506D02*
G01Y021881D01*
X001278*
Y021725*
X001084*
Y021596*
X001175Y021544*
X001278Y021519*
X001369Y021531*
X001447Y021596*
X001498Y0217*
X001511Y021855*
X001498Y021984*
X001447Y022087*
X001369Y022139*
X001278Y022165*
X001214Y022152*
X001162Y022126*
X001123Y022075*
X001097Y02201*
X000955Y022036*
X000994Y022152*
X001059Y022243*
X001149Y022307*
X001278Y02232*
X001382Y022307*
X001472Y022269*
X00155Y022204*
X001602Y0221*
X00164Y021984*
X001653Y021842*
X00164Y0217*
X001602Y021583*
X001537Y02148*
X001472Y021415*
X001369Y021376*
X001265Y021363*
X001175Y021376*
X001084Y021402*
X001007Y021454*
X000942Y021506*
G37*
G36*
X025188Y002978D02*
G01Y003353D01*
X025525*
Y003197*
X025331*
Y003068*
X025421Y003016*
X025525Y00299*
X025615Y003003*
X025693Y003068*
X025744Y003171*
X025757Y003327*
X025744Y003456*
X025693Y003559*
X025615Y003611*
X025525Y003637*
X02546Y003624*
X025408Y003598*
X025369Y003546*
X025343Y003482*
X025201Y003508*
X02524Y003624*
X025305Y003715*
X025395Y003779*
X025525Y003792*
X025628Y003779*
X025718Y00374*
X025796Y003676*
X025848Y003572*
X025887Y003456*
X0259Y003314*
X025887Y003171*
X025848Y003055*
X025783Y002952*
X025718Y002887*
X025615Y002848*
X025512Y002835*
X025421Y002848*
X025331Y002874*
X025253Y002926*
X025188Y002978*
G37*
G36*
X008273Y028959D02*
G01Y029101D01*
X009023Y029256*
X008273*
Y029399*
X009204*
Y029166*
X008558Y029037*
X009204Y028894*
Y028662*
X008273*
Y028804*
X009023*
X008273Y028959*
G37*
G36*
X027126Y016097D02*
G01Y016214D01*
X027152Y016421*
X027178Y016498*
X02723Y016563*
X027268Y016602*
X027281Y016615*
X027346Y016653*
X027411Y016679*
X027488Y016692*
X027605Y016679*
X027682Y01664*
X02776Y016576*
X027812Y016485*
X02785Y016356*
X027863Y016214*
X02785Y016097*
X027837Y016007*
X027799Y015916*
X02776Y015852*
X027708Y0158*
X027643Y015761*
X027579Y015748*
X027488Y015735*
X027411Y015748*
X027346Y015761*
X027281Y0158*
X02723Y015852*
X027191Y015916*
X027152Y016007*
X027126Y016097*
G37*
G36*
X008273Y027821D02*
G01Y027963D01*
X00848Y028041*
Y028364*
X008273Y028442*
Y028584*
X008635Y028458*
X009204Y028261*
Y028144*
X008273Y027821*
G37*
G36*
X019431Y003698D02*
G01X019703Y00448D01*
X019754Y004629*
X019871*
X020194Y003698*
X020052*
X019974Y003905*
X019651*
X019573Y003698*
X019431*
G37*
G36*
X016983Y006698D02*
G01X017255Y00748D01*
X017306Y007629*
X017423*
X017746Y006698*
X017604*
X017526Y006905*
X017203*
X017125Y006698*
X016983*
G37*
G36*
X003574Y025401D02*
G01X003846Y026183D01*
X003897Y026332*
X004014*
X004337Y025401*
X004195*
X004117Y025608*
X003794*
X003716Y025401*
X003574*
G37*
G36*
X00096Y01095D02*
G01Y011234D01*
X001348*
Y011726*
X001633*
Y011234*
X002021*
Y01095*
X001633*
Y010459*
X001348*
Y01095*
X00096*
G37*
%LPC*%
G36*
X008829Y006342D02*
G01X00884Y00631D01*
X008872Y006267*
X008926Y006256*
X008947*
X008969Y006278*
X00899Y006321*
X008969Y006364*
X008947Y006385*
X008861Y006407*
X008829Y006418*
Y006342*
G37*
G36*
X007169Y006482D02*
G01X007159Y006536D01*
X007137Y006569*
X007105Y00659*
X007072Y006601*
X00704Y00659*
X007008Y006569*
X006986Y006536*
X006975Y006482*
X007169*
G37*
G36*
X007471Y006353D02*
G01X007493Y006299D01*
X007525Y006267*
X007568Y006256*
X007611Y006267*
X007643Y006299*
X007665Y006353*
X007676Y006439*
X007665Y006504*
X007643Y006558*
X007611Y00659*
X007568Y006601*
X007525Y00659*
X007493Y006558*
X007471Y006504*
X00746Y006429*
X007471Y006353*
G37*
G36*
X008778Y029683D02*
G01X009049D01*
Y029864*
X009036Y029916*
X008997Y029968*
X008959Y029993*
X008907*
X008829Y029968*
X00879Y029916*
X008778Y029864*
Y029683*
G37*
G36*
X028859Y016382D02*
G01X028885Y016304D01*
X028937Y016265*
X028988Y016253*
X029169*
Y016524*
X028988*
X028937Y016511*
X028885Y016472*
X028859Y016434*
Y016382*
G37*
G36*
X023792Y003223D02*
G01X023805Y003146D01*
X023818Y003094*
X023843Y003055*
X023908Y003016*
X023947Y003003*
X024141*
Y003624*
X023986*
X023934Y003611*
X023856Y003572*
X023805Y003469*
X023792Y003404*
Y003223*
G37*
G36*
X020388Y004073D02*
G01X020401Y003996D01*
X020414Y003944*
X02044Y003905*
X020504Y003866*
X020543Y003853*
X020737*
Y004474*
X020582*
X02053Y004461*
X020453Y004422*
X020401Y004319*
X020388Y004254*
Y004073*
G37*
G36*
X008932Y032651D02*
G01X008945Y032574D01*
X008958Y032522*
X008984Y032483*
X009048Y032444*
X009087Y032431*
X009281*
Y033052*
X009126*
X009074Y033039*
X008997Y033*
X008945Y032897*
X008932Y032832*
Y032651*
G37*
G36*
X008221Y032871D02*
G01X008285Y032832D01*
X008518*
Y033052*
X008285*
X008208Y033013*
X008195Y032949*
X008221Y032871*
G37*
G36*
X008182Y032483D02*
G01X008234Y032444D01*
X008285Y032431*
X008518*
Y032677*
X008298*
X008247Y032664*
X008195Y032625*
X008169Y032548*
X008182Y032483*
G37*
G36*
X004583Y025996D02*
G01X004647Y025957D01*
X00488*
Y026177*
X004647*
X00457Y026138*
X004557Y026074*
X004583Y025996*
G37*
G36*
X004544Y025608D02*
G01X004596Y025569D01*
X004647Y025556*
X00488*
Y025802*
X00466*
X004609Y025789*
X004557Y02575*
X004531Y025673*
X004544Y025608*
G37*
G36*
X002662Y021751D02*
G01X002675Y021674D01*
X002688Y021622*
X002714Y021583*
X002778Y021544*
X002817Y021531*
X003011*
Y022152*
X002856*
X002804Y022139*
X002727Y0221*
X002675Y021997*
X002662Y021932*
Y021751*
G37*
G36*
X001951Y021971D02*
G01X002015Y021932D01*
X002248*
Y022152*
X002015*
X001938Y022113*
X001925Y022049*
X001951Y021971*
G37*
G36*
X001912Y021583D02*
G01X001964Y021544D01*
X002015Y021531*
X002248*
Y021777*
X002028*
X001977Y021764*
X001925Y021725*
X001899Y021648*
X001912Y021583*
G37*
G36*
X018258Y008823D02*
G01X018271Y008746D01*
X018284Y008694*
X01831Y008655*
X018375Y008616*
X018413Y008603*
X018607*
Y009224*
X018452*
X0184Y009211*
X018323Y009172*
X018271Y009069*
X018258Y009004*
Y008823*
G37*
G36*
X003959Y024326D02*
G01X003972Y024249D01*
X003985Y024197*
X004011Y024158*
X004076Y024119*
X004115Y024106*
X004309*
Y024727*
X004153*
X004102Y024714*
X004024Y024675*
X003972Y024572*
X003959Y024507*
Y024326*
G37*
G36*
X003197D02*
G01X003209Y024249D01*
X003222Y024197*
X003248Y024158*
X003313Y024119*
X003352Y024106*
X003546*
Y024727*
X00339*
X003339Y024714*
X003261Y024675*
X003209Y024572*
X003197Y024507*
Y024326*
G37*
G36*
X028135Y01633D02*
G01X028187Y016304D01*
X028238Y016291*
X028458*
Y016524*
X028238*
X028187Y016511*
X028135Y016485*
X028122Y016408*
X028135Y01633*
G37*
G36*
X027281Y016071D02*
G01X027333Y015968D01*
X027411Y015903*
X027488Y01589*
X027579Y015903*
X027656Y015968*
X027708Y016071*
X027721Y016214*
X027708Y016356*
X027656Y016459*
X027579Y016511*
X027488Y016537*
X027398Y016511*
X027333Y016459*
X027281Y016356*
X027268Y016214*
X027281Y016071*
G37*
G36*
X008635Y028093D02*
G01X008984Y028209D01*
X008635Y028312*
Y028093*
G37*
G36*
X019922Y00406D02*
G01X019806Y004409D01*
X019703Y00406*
X019922*
G37*
G36*
X017475Y00706D02*
G01X017358Y007409D01*
X017255Y00706*
X017475*
G37*
G36*
X004065Y025763D02*
G01X003949Y026112D01*
X003846Y025763*
X004065*
G37*
%LPD*%
G54D78*
X0015Y006375D02*
G01Y003625D01*
X00625Y006375D02*
G01Y003625D01*
X003875Y00565D02*
G01X002075D01*
Y00435*
X003875*
Y00565*
X00275D02*
G01Y00435D01*
X007496Y02845D02*
G01X0076D01*
Y032*
X007496*
X000474Y02845D02*
G01X00035D01*
Y032*
X000474*
G54D12*
X023085Y012777D02*
G01X026514D01*
X023085Y006173D02*
G01X026514D01*
X026994Y013408D02*
G01X02801Y0129D01*
Y0129D02*
G01Y013916D01*
Y013916D02*
G01X026994Y013408D01*
X02861Y01265D02*
G01Y010745D01*
X029245*
Y008205*
X02861*
Y0063*
X003004Y052732D02*
G01X002889Y052875D01*
Y052875D02*
G01X002716Y052947D01*
X002485*
X002312Y052875*
Y052875D02*
G01X002196Y052732D01*
Y052732D02*
G01Y05259D01*
Y05259D02*
G01X002254Y052447D01*
X002312Y052375*
Y052375D02*
G01X002427Y052304D01*
X002773Y052161*
Y052161D02*
G01X002889Y052089D01*
Y052089D02*
G01X002947Y052018D01*
Y052018D02*
G01X003004Y051875D01*
Y051875D02*
G01Y051661D01*
Y051661D02*
G01X002889Y051518D01*
X002716Y051447*
X002485*
X002312Y051518*
X002196Y051661*
X003524Y052947D02*
G01Y051447D01*
Y052947D02*
G01X004274D01*
X003524Y052232D02*
G01X003986D01*
X003524Y051447D02*
G01X004274D01*
X00566Y05259D02*
G01X005602Y052732D01*
Y052732D02*
G01X005487Y052875D01*
Y052875D02*
G01X005371Y052947D01*
Y052947D02*
G01X00514D01*
Y052947D02*
G01X005025Y052875D01*
Y052875D02*
G01X004909Y052732D01*
Y052732D02*
G01X004852Y05259D01*
X004794Y052375*
Y052375D02*
G01Y052018D01*
Y052018D02*
G01X004852Y051804D01*
X004909Y051661*
Y051661D02*
G01X005025Y051518D01*
X00514Y051447*
Y051447D02*
G01X005371D01*
Y051447D02*
G01X005487Y051518D01*
X005602Y051661*
X00566Y051804*
X006526Y052947D02*
G01X00641Y052875D01*
Y052875D02*
G01X006295Y052732D01*
Y052732D02*
G01X006237Y05259D01*
X006179Y052375*
Y052375D02*
G01Y052018D01*
Y052018D02*
G01X006237Y051804D01*
X006295Y051661*
X00641Y051518*
Y051518D02*
G01X006526Y051447D01*
X006757*
X006872Y051518*
X006987Y051661*
Y051661D02*
G01X007045Y051804D01*
Y051804D02*
G01X007103Y052018D01*
Y052018D02*
G01Y052375D01*
Y052375D02*
G01X007045Y05259D01*
Y05259D02*
G01X006987Y052732D01*
Y052732D02*
G01X006872Y052875D01*
Y052875D02*
G01X006757Y052947D01*
X006526*
X007622D02*
G01Y051447D01*
Y052947D02*
G01X008431Y051447D01*
Y052947D02*
G01Y051447D01*
X00895Y052947D02*
G01Y051447D01*
Y052947D02*
G01X009354D01*
Y052947D02*
G01X009527Y052875D01*
Y052875D02*
G01X009643Y052732D01*
Y052732D02*
G01X009701Y05259D01*
X009758Y052375*
Y052375D02*
G01Y052018D01*
Y052018D02*
G01X009701Y051804D01*
X009643Y051661*
X009527Y051518*
Y051518D02*
G01X009354Y051447D01*
Y051447D02*
G01X00895D01*
X01074Y052947D02*
G01X010278Y051447D01*
X01074Y052947D02*
G01X011202Y051447D01*
X010451Y051947D02*
G01X011028D01*
X011721Y052947D02*
G01Y051447D01*
Y052947D02*
G01X012241D01*
X012414Y052875*
Y052875D02*
G01X012472Y052804D01*
X012529Y052661*
Y052661D02*
G01Y052518D01*
Y052518D02*
G01X012472Y052375D01*
Y052375D02*
G01X012414Y052304D01*
X012241Y052232*
Y052232D02*
G01X011721D01*
X012125D02*
G01X012529Y051447D01*
X013049Y052947D02*
G01X013511Y052232D01*
Y052232D02*
G01Y051447D01*
X013972Y052947D02*
G01X013511Y052232D01*
X016628Y052732D02*
G01X016512Y052875D01*
Y052875D02*
G01X016339Y052947D01*
Y052947D02*
G01X016108D01*
Y052947D02*
G01X015935Y052875D01*
Y052875D02*
G01X01582Y052732D01*
Y052732D02*
G01Y05259D01*
X015877Y052447*
Y052447D02*
G01X015935Y052375D01*
Y052375D02*
G01X016051Y052304D01*
X016397Y052161*
X016512Y052089*
Y052089D02*
G01X01657Y052018D01*
Y052018D02*
G01X016628Y051875D01*
Y051875D02*
G01Y051661D01*
X016512Y051518*
Y051518D02*
G01X016339Y051447D01*
Y051447D02*
G01X016108D01*
Y051447D02*
G01X015935Y051518D01*
Y051518D02*
G01X01582Y051661D01*
X017147Y052947D02*
G01Y051447D01*
X017667Y052947D02*
G01Y051447D01*
X01836*
X018879Y052947D02*
G01Y051447D01*
X019687Y052947D02*
G01X018879Y051947D01*
X019168Y052304D02*
G01X019687Y051447D01*
X021015Y052732D02*
G01X0209Y052875D01*
Y052875D02*
G01X020727Y052947D01*
X020496*
X020322Y052875*
Y052875D02*
G01X020207Y052732D01*
Y052732D02*
G01Y05259D01*
X020265Y052447*
X020322Y052375*
Y052375D02*
G01X020438Y052304D01*
X020784Y052161*
Y052161D02*
G01X0209Y052089D01*
Y052089D02*
G01X020957Y052018D01*
Y052018D02*
G01X021015Y051875D01*
Y051875D02*
G01Y051661D01*
Y051661D02*
G01X0209Y051518D01*
X020727Y051447*
X020496*
X020322Y051518*
Y051518D02*
G01X020207Y051661D01*
X022401Y05259D02*
G01X022343Y052732D01*
Y052732D02*
G01X022227Y052875D01*
Y052875D02*
G01X022112Y052947D01*
X021881*
Y052947D02*
G01X021766Y052875D01*
Y052875D02*
G01X02165Y052732D01*
Y052732D02*
G01X021592Y05259D01*
Y05259D02*
G01X021535Y052375D01*
Y052375D02*
G01Y052018D01*
Y052018D02*
G01X021592Y051804D01*
Y051804D02*
G01X02165Y051661D01*
Y051661D02*
G01X021766Y051518D01*
X021881Y051447*
Y051447D02*
G01X022112D01*
X022227Y051518*
Y051518D02*
G01X022343Y051661D01*
X022401Y051804*
X02292Y052947D02*
G01Y051447D01*
Y052947D02*
G01X02344D01*
X023613Y052875*
Y052875D02*
G01X023671Y052804D01*
X023728Y052661*
Y052661D02*
G01Y052518D01*
Y052518D02*
G01X023671Y052375D01*
Y052375D02*
G01X023613Y052304D01*
X02344Y052232*
Y052232D02*
G01X02292D01*
X023324D02*
G01X023728Y051447D01*
X024248Y052947D02*
G01Y051447D01*
Y052947D02*
G01X024998D01*
X024248Y052232D02*
G01X02471D01*
X024248Y051447D02*
G01X024998D01*
X025518Y052947D02*
G01Y051447D01*
Y052947D02*
G01X026268D01*
X025518Y052232D02*
G01X02598D01*
X025518Y051447D02*
G01X026268D01*
X026788Y052947D02*
G01Y051447D01*
Y052947D02*
G01X027596Y051447D01*
Y052947D02*
G01Y051447D01*
X008075Y031453D02*
G01X010303D01*
X009403Y031153*
Y031753*
X010303Y031453*
G54D59*
X007416Y008256D02*
G01X009679Y010518D01*
Y010518D02*
G01X012861Y007336D01*
Y007336D02*
G01X028488Y022964D01*
X025306Y026145*
Y026145D02*
G01X027568Y028408D01*
X022583Y033393D02*
G01X02032Y031131D01*
Y031131D02*
G01X017139Y034313D01*
X002572Y019746*
Y019746D02*
G01Y017625D01*
Y017625D02*
G01X004693Y015504D01*
Y015504D02*
G01X002431Y013241D01*
X024892Y019364D02*
G75*
G03X013625Y03073I-009892J001461D01*
X005094Y022199D02*
G03X01646Y010932I009906J-001374D01*
X012436Y008892D02*
G01X01332Y009776D01*
Y008892D02*
G01X012436Y009776D01*
X013878Y009334D02*
G03X013878Y009334I-000999D01*
X016679Y031873D02*
G01X017563Y032757D01*
X018121Y032315D02*
G03X018121Y032315I-000999D01*
G54D10*
X-012065Y-009525D02*
G01X-006985D01*
X-009525Y-012065D02*
G01Y-006985D01*
X-007747Y-009525D02*
G03X-007747Y-009525I-001778D01*
X-009271D02*
G03X-009271Y-009525I-000254D01*
X-009017D02*
G03X-009017Y-009525I-000508D01*
X-008763D02*
G03X-008763Y-009525I-000762D01*
X-007493D02*
G03X-007493Y-009525I-002032D01*
X-008001D02*
G03X-008001Y-009525I-001524D01*
X-008255D02*
G03X-008255Y-009525I-00127D01*
X-008509D02*
G03X-008509Y-009525I-001016D01*
X-012065Y059525D02*
G01X-006985D01*
X-009525Y056985D02*
G01Y062065D01*
X-007747Y059525D02*
G03X-007747Y059525I-001778D01*
X-009271D02*
G03X-009271Y059525I-000254D01*
X-009017D02*
G03X-009017Y059525I-000508D01*
X-008763D02*
G03X-008763Y059525I-000762D01*
X-007493D02*
G03X-007493Y059525I-002032D01*
X-008001D02*
G03X-008001Y059525I-001524D01*
X-008255D02*
G03X-008255Y059525I-00127D01*
X-008509D02*
G03X-008509Y059525I-001016D01*
X036985D02*
G01X042065D01*
X039525Y056985D02*
G01Y062065D01*
X041303Y059525D02*
G03X041303Y059525I-001778D01*
X039779D02*
G03X039779Y059525I-000254D01*
X040033D02*
G03X040033Y059525I-000508D01*
X040287D02*
G03X040287Y059525I-000762D01*
X041557D02*
G03X041557Y059525I-002032D01*
X041049D02*
G03X041049Y059525I-001524D01*
X040795D02*
G03X040795Y059525I-00127D01*
X040541D02*
G03X040541Y059525I-001016D01*
M02*
