G04 CAM350 V10.0.1 (Build 316) Date:  Thu Apr 11 13:25:31 2019 *
G04 Database: C:\PADS Projects\Cam\ZGM130-PCB\ZGM130-Si7210_r2_0.cam *
G04 Layer 2: ZGM130-PCB_PSM.PHO *
%FSTAX33Y33*%
%MOMM*%
%SFA1.000B1.000*%

%MIA0B0*%
%IPPOS*%
%ADD10C,0.12700*%
%ADD12C,0.25400*%
%ADD70C,0.50000*%
%ADD71C,0.76200*%
%ADD21R,2.41300X2.59080*%
%ADD72R,0.80000X0.80000*%
%ADD73R,0.88900X0.78740*%
%ADD33R,1.20000X0.70000*%
%ADD35C,0.85000*%
%ADD43C,1.25000*%
%ADD44O,0.45000X0.85000*%
%ADD47R,2.50000X1.60000*%
%ADD48O,0.70000X0.30000*%
%ADD49O,0.30000X0.70000*%
%ADD51O,1.10000X0.60000*%
%ADD53R,0.35000X0.45000*%
%ADD54R,0.45000X0.35000*%
%ADD55R,0.80000X0.70000*%
%ADD56R,0.70000X0.80000*%
%ADD74C,2.03200*%
%LNZGM130-PCB_PSM.PHO*%
%LPD*%
G36*
X0032Y016425D02*
G01Y017725D01*
X0041*
Y016425*
X0032*
G37*
G36*
X0007Y018625D02*
G01Y019725D01*
X002*
Y018975*
X0014*
Y018625*
X0007*
G37*
G36*
Y014425D02*
G01Y015525D01*
X0014*
Y015175*
X002*
Y014425*
X0007*
G37*
G54D70*
X028425Y0343D03*
G54D71*
X00355Y001275D03*
X02315Y0033D03*
X002575Y0259D03*
Y0244D03*
Y0229D03*
X0015Y009925D03*
Y008425D03*
X011Y019625D03*
X019Y0041D03*
X0185Y005025D03*
X018975Y007125D03*
X026Y01555D03*
X008875Y030675D03*
X017625Y008925D03*
G54D21*
X011357Y0142D03*
X018342D03*
G54D72*
X0158Y008625D03*
X0142D03*
G54D73*
X00425Y008985D03*
Y010864D03*
X00225Y009925D03*
G54D33*
X0033Y018775D03*
Y015375D03*
G54D35*
X002475Y030225D03*
X005475D03*
G54D43*
X00509Y00127D03*
X02491D03*
G54D44*
X026925Y005175D03*
X027925D03*
X028925D03*
Y008075D03*
X027925D03*
X026925D03*
G54D47*
X027925Y006625D03*
G54D48*
X0185Y0209D03*
Y0214D03*
Y0219D03*
Y0224D03*
Y0229D03*
Y0234D03*
Y0239D03*
Y0244D03*
Y0249D03*
Y0254D03*
Y0259D03*
Y0264D03*
Y0269D03*
Y0274D03*
Y0279D03*
Y0284D03*
X01D03*
Y0279D03*
Y0274D03*
Y0269D03*
Y0264D03*
Y0259D03*
Y0254D03*
Y0249D03*
Y0244D03*
Y0239D03*
Y0234D03*
Y0229D03*
Y0224D03*
Y0219D03*
Y0214D03*
Y0209D03*
G54D49*
X018Y0289D03*
X0175D03*
X017D03*
X0165D03*
X016D03*
X0155D03*
X015D03*
X0145D03*
X014D03*
X0135D03*
X013D03*
X0125D03*
X012D03*
X0115D03*
X011D03*
X0105D03*
Y0204D03*
X011D03*
X0115D03*
X012D03*
X0125D03*
X013D03*
X0135D03*
X014D03*
X0145D03*
X015D03*
X0155D03*
X016D03*
X0165D03*
X017D03*
X0175D03*
X018D03*
G54D51*
X0163Y0007D03*
Y00165D03*
Y0026D03*
X0137D03*
Y0007D03*
G54D53*
X028775Y008975D03*
X027925D03*
X0082Y01435D03*
X00735D03*
X0082Y0153D03*
X00735D03*
X0082Y01625D03*
X00735D03*
X00885Y007475D03*
X008D03*
X011575Y008625D03*
X012425D03*
X0174Y004075D03*
X01825D03*
X017775Y005475D03*
X016925D03*
X026925Y03335D03*
X027775D03*
G54D54*
X019625Y02875D03*
Y0279D03*
X012675Y003825D03*
Y002975D03*
X0051Y0033D03*
Y00245D03*
X00345Y012925D03*
Y013775D03*
X028425Y03335D03*
Y0325D03*
X026275Y03335D03*
Y0325D03*
X015Y029625D03*
Y030475D03*
G54D55*
X0087Y0224D03*
Y0238D03*
G54D56*
X012Y019025D03*
X0134D03*
X008925Y013225D03*
X007525D03*
G54D74*
X00105Y00105D03*
X028475Y014025D03*
X026Y02705D03*
G54D12*
X002687Y056122D02*
G01Y054622D01*
Y056122D02*
G01X003206D01*
Y056122D02*
G01X003379Y05605D01*
Y05605D02*
G01X003437Y055979D01*
Y055979D02*
G01X003495Y055836D01*
Y055622*
X003437Y055479*
Y055479D02*
G01X003379Y055407D01*
Y055407D02*
G01X003206Y055336D01*
Y055336D02*
G01X002687D01*
X004014Y056122D02*
G01Y054622D01*
Y056122D02*
G01X004534D01*
Y056122D02*
G01X004707Y05605D01*
Y05605D02*
G01X004765Y055979D01*
X004823Y055836*
Y055693*
Y055693D02*
G01X004765Y05555D01*
Y05555D02*
G01X004707Y055479D01*
Y055479D02*
G01X004534Y055407D01*
Y055407D02*
G01X004014D01*
X004419D02*
G01X004823Y054622D01*
X005342Y056122D02*
G01Y054622D01*
X005862Y056122D02*
G01Y054622D01*
Y056122D02*
G01X006324Y054622D01*
X006785Y056122D02*
G01X006324Y054622D01*
X006785Y056122D02*
G01Y054622D01*
X007767Y056122D02*
G01X007305Y054622D01*
X007767Y056122D02*
G01X008229Y054622D01*
X007478Y055122D02*
G01X008055D01*
X008748Y056122D02*
G01Y054622D01*
Y056122D02*
G01X009268D01*
X009441Y05605*
Y05605D02*
G01X009499Y055979D01*
X009556Y055836*
Y055836D02*
G01Y055693D01*
Y055693D02*
G01X009499Y05555D01*
Y05555D02*
G01X009441Y055479D01*
X009268Y055407*
Y055407D02*
G01X008748D01*
X009152D02*
G01X009556Y054622D01*
X010076Y056122D02*
G01X010538Y055407D01*
Y055407D02*
G01Y054622D01*
X010999Y056122D02*
G01X010538Y055407D01*
X013655Y055907D02*
G01X013539Y05605D01*
Y05605D02*
G01X013366Y056122D01*
Y056122D02*
G01X013135D01*
Y056122D02*
G01X012962Y05605D01*
Y05605D02*
G01X012847Y055907D01*
Y055907D02*
G01Y055765D01*
X012904Y055622*
Y055622D02*
G01X012962Y05555D01*
Y05555D02*
G01X013078Y055479D01*
X013424Y055336*
Y055336D02*
G01X013539Y055264D01*
Y055264D02*
G01X013597Y055193D01*
Y055193D02*
G01X013655Y05505D01*
Y05505D02*
G01Y054836D01*
X013539Y054693*
Y054693D02*
G01X013366Y054622D01*
Y054622D02*
G01X013135D01*
Y054622D02*
G01X012962Y054693D01*
Y054693D02*
G01X012847Y054836D01*
X014521Y056122D02*
G01X014405Y05605D01*
Y05605D02*
G01X01429Y055907D01*
Y055907D02*
G01X014232Y055765D01*
Y055765D02*
G01X014174Y05555D01*
Y05555D02*
G01Y055193D01*
Y055193D02*
G01X014232Y054979D01*
Y054979D02*
G01X01429Y054836D01*
X014405Y054693*
Y054693D02*
G01X014521Y054622D01*
X014752*
X014867Y054693*
Y054693D02*
G01X014983Y054836D01*
X01504Y054979*
Y054979D02*
G01X015098Y055193D01*
Y055193D02*
G01Y05555D01*
Y05555D02*
G01X01504Y055765D01*
Y055765D02*
G01X014983Y055907D01*
Y055907D02*
G01X014867Y05605D01*
Y05605D02*
G01X014752Y056122D01*
X014521*
X015618D02*
G01Y054622D01*
X01631*
X01683Y056122D02*
G01Y054622D01*
Y056122D02*
G01X017234D01*
Y056122D02*
G01X017407Y05605D01*
Y05605D02*
G01X017523Y055907D01*
Y055907D02*
G01X01758Y055765D01*
Y055765D02*
G01X017638Y05555D01*
Y05555D02*
G01Y055193D01*
Y055193D02*
G01X01758Y054979D01*
Y054979D02*
G01X017523Y054836D01*
X017407Y054693*
Y054693D02*
G01X017234Y054622D01*
Y054622D02*
G01X01683D01*
X018158Y056122D02*
G01Y054622D01*
Y056122D02*
G01X018908D01*
X018158Y055407D02*
G01X018619D01*
X018158Y054622D02*
G01X018908D01*
X019428Y056122D02*
G01Y054622D01*
Y056122D02*
G01X019947D01*
Y056122D02*
G01X02012Y05605D01*
Y05605D02*
G01X020178Y055979D01*
Y055979D02*
G01X020236Y055836D01*
Y055693*
Y055693D02*
G01X020178Y05555D01*
Y05555D02*
G01X02012Y055479D01*
Y055479D02*
G01X019947Y055407D01*
Y055407D02*
G01X019428D01*
X019832D02*
G01X020236Y054622D01*
X022083Y056122D02*
G01Y054622D01*
Y056122D02*
G01X022545Y054622D01*
X023007Y056122D02*
G01X022545Y054622D01*
X023007Y056122D02*
G01Y054622D01*
X023988Y056122D02*
G01X023526Y054622D01*
X023988Y056122D02*
G01X02445Y054622D01*
X023699Y055122D02*
G01X024277D01*
X025778Y055907D02*
G01X025662Y05605D01*
Y05605D02*
G01X025489Y056122D01*
Y056122D02*
G01X025258D01*
Y056122D02*
G01X025085Y05605D01*
Y05605D02*
G01X024969Y055907D01*
Y055907D02*
G01Y055765D01*
Y055765D02*
G01X025027Y055622D01*
Y055622D02*
G01X025085Y05555D01*
Y05555D02*
G01X0252Y055479D01*
Y055479D02*
G01X025547Y055336D01*
X025662Y055264*
Y055264D02*
G01X02572Y055193D01*
Y055193D02*
G01X025778Y05505D01*
Y05505D02*
G01Y054836D01*
X025662Y054693*
Y054693D02*
G01X025489Y054622D01*
Y054622D02*
G01X025258D01*
Y054622D02*
G01X025085Y054693D01*
X024969Y054836*
X026297Y056122D02*
G01Y054622D01*
X027105Y056122D02*
G01X026297Y055122D01*
X026586Y055479D02*
G01X027105Y054622D01*
G54D10*
X-012065Y-009525D02*
G01X-006985D01*
X-009525Y-012065D02*
G01Y-006985D01*
X-007747Y-009525D02*
G75*
G03X-007747Y-009525I-001778D01*
X-009271D02*
G03X-009271Y-009525I-000254D01*
X-009017D02*
G03X-009017Y-009525I-000508D01*
X-008763D02*
G03X-008763Y-009525I-000762D01*
X-007493D02*
G03X-007493Y-009525I-002032D01*
X-008001D02*
G03X-008001Y-009525I-001524D01*
X-008255D02*
G03X-008255Y-009525I-00127D01*
X-008509D02*
G03X-008509Y-009525I-001016D01*
X-012065Y059525D02*
G01X-006985D01*
X-009525Y056985D02*
G01Y062065D01*
X-007747Y059525D02*
G03X-007747Y059525I-001778D01*
X-009271D02*
G03X-009271Y059525I-000254D01*
X-009017D02*
G03X-009017Y059525I-000508D01*
X-008763D02*
G03X-008763Y059525I-000762D01*
X-007493D02*
G03X-007493Y059525I-002032D01*
X-008001D02*
G03X-008001Y059525I-001524D01*
X-008255D02*
G03X-008255Y059525I-00127D01*
X-008509D02*
G03X-008509Y059525I-001016D01*
X036985D02*
G01X042065D01*
X039525Y056985D02*
G01Y062065D01*
X041303Y059525D02*
G03X041303Y059525I-001778D01*
X039779D02*
G03X039779Y059525I-000254D01*
X040033D02*
G03X040033Y059525I-000508D01*
X040287D02*
G03X040287Y059525I-000762D01*
X041557D02*
G03X041557Y059525I-002032D01*
X041049D02*
G03X041049Y059525I-001524D01*
X040795D02*
G03X040795Y059525I-00127D01*
X040541D02*
G03X040541Y059525I-001016D01*
M02*
