G04 CAM350 V10.0.1 (Build 316) Date:  Thu Apr 11 13:25:31 2019 *
G04 Database: C:\PADS Projects\Cam\ZGM130-PCB\ZGM130-Si7210_r2_0.cam *
G04 Layer 5: ZGM130-PCB_SSM.PHO *
%FSTAX33Y33*%
%MOMM*%
%SFA1.000B1.000*%

%MIA0B0*%
%IPPOS*%
%ADD10C,0.12700*%
%ADD12C,0.25400*%
%ADD71C,0.76200*%
%ADD35C,0.85000*%
%ADD43C,1.25000*%
%ADD74C,2.03200*%
%ADD84R,2.79400X0.73660*%
%ADD85R,1.20000X0.80000*%
%ADD86R,1.00000X1.15000*%
%LNZGM130-PCB_SSM.PHO*%
%LPD*%
G54D71*
X00355Y001275D03*
X02315Y0033D03*
X002575Y0259D03*
Y0244D03*
Y0229D03*
X0015Y009925D03*
Y008425D03*
X011Y019625D03*
X019Y0041D03*
X0185Y005025D03*
X018975Y007125D03*
X026Y01555D03*
X008875Y030675D03*
X017625Y008925D03*
G54D35*
X002475Y030225D03*
X005475D03*
G54D43*
X00509Y00127D03*
X02491D03*
G54D74*
X02815Y02615D03*
X02835Y00165D03*
X0078Y0046D03*
G54D84*
X026832Y012015D03*
X022768D03*
X026832Y010745D03*
X022768D03*
X026832Y009475D03*
X022768D03*
X026832Y008205D03*
X022768D03*
X026832Y006935D03*
X022768D03*
G54D85*
X005075Y00715D03*
X002675Y00285D03*
X005075D03*
X002675Y00715D03*
G54D86*
X001475Y0274D03*
X003975D03*
X006475D03*
X001475Y03305D03*
X003975D03*
X006475D03*
G54D12*
X007112Y010147D02*
G01X004322Y012937D01*
Y012937D02*
G01X00238Y010996D01*
Y010996D02*
G01X005171Y008205D01*
Y008205D02*
G01X007112Y010147D01*
X004995Y008382D02*
G01X005347D01*
X004741Y008636D02*
G01X005601D01*
X004487Y00889D02*
G01X005855D01*
X004233Y009144D02*
G01X006109D01*
X003979Y009398D02*
G01X006363D01*
X003725Y009652D02*
G01X006617D01*
X003471Y009906D02*
G01X006871D01*
X003217Y01016D02*
G01X0071D01*
X002963Y010414D02*
G01X006846D01*
X002709Y010668D02*
G01X006592D01*
X002455Y010922D02*
G01X006338D01*
X00256Y011176D02*
G01X006084D01*
X002814Y01143D02*
G01X00583D01*
X003068Y011684D02*
G01X005576D01*
X003322Y011938D02*
G01X005322D01*
X003576Y012192D02*
G01X005068D01*
X00383Y012446D02*
G01X004814D01*
X004084Y0127D02*
G01X00456D01*
X00254Y010837D02*
G01Y011155D01*
X002794Y010583D02*
G01Y011409D01*
X003048Y010329D02*
G01Y011663D01*
X003302Y010075D02*
G01Y011917D01*
X003556Y009821D02*
G01Y012171D01*
X00381Y009567D02*
G01Y012425D01*
X004064Y009313D02*
G01Y012679D01*
X004318Y009059D02*
G01Y012933D01*
X004572Y008805D02*
G01Y012688D01*
X004826Y008551D02*
G01Y012434D01*
X00508Y008297D02*
G01Y01218D01*
X005334Y008368D02*
G01Y011926D01*
X005588Y008622D02*
G01Y011672D01*
X005842Y008876D02*
G01Y011418D01*
X006096Y00913D02*
G01Y011164D01*
X00635Y009384D02*
G01Y01091D01*
X006604Y009638D02*
G01Y010656D01*
X006858Y009892D02*
G01Y010402D01*
X007112Y010146D02*
G01Y010148D01*
X027619Y030653D02*
G01X024828Y033444D01*
Y033444D02*
G01X022887Y031502D01*
X025677Y028712*
X027619Y030653*
X025433Y028956D02*
G01X025921D01*
X025179Y02921D02*
G01X026175D01*
X024925Y029464D02*
G01X026429D01*
X024671Y029718D02*
G01X026683D01*
X024417Y029972D02*
G01X026937D01*
X024163Y030226D02*
G01X027191D01*
X023909Y03048D02*
G01X027445D01*
X023655Y030734D02*
G01X027538D01*
X023401Y030988D02*
G01X027284D01*
X023147Y031242D02*
G01X02703D01*
X022893Y031496D02*
G01X026776D01*
X023134Y03175D02*
G01X026522D01*
X023388Y032004D02*
G01X026268D01*
X023642Y032258D02*
G01X026014D01*
X023896Y032512D02*
G01X02576D01*
X02415Y032766D02*
G01X025506D01*
X024404Y03302D02*
G01X025252D01*
X024658Y033274D02*
G01X024998D01*
X023114Y031275D02*
G01Y031729D01*
X023368Y031021D02*
G01Y031983D01*
X023622Y030767D02*
G01Y032237D01*
X023876Y030513D02*
G01Y032491D01*
X02413Y030259D02*
G01Y032745D01*
X024384Y030005D02*
G01Y032999D01*
X024638Y029751D02*
G01Y033253D01*
X024892Y029497D02*
G01Y03338D01*
X025146Y029243D02*
G01Y033126D01*
X0254Y028989D02*
G01Y032872D01*
X025654Y028735D02*
G01Y032618D01*
X025908Y028942D02*
G01Y032364D01*
X026162Y029196D02*
G01Y03211D01*
X026416Y02945D02*
G01Y031856D01*
X02667Y029704D02*
G01Y031602D01*
X026924Y029958D02*
G01Y031348D01*
X027178Y030212D02*
G01Y031094D01*
X027432Y030466D02*
G01Y03084D01*
X001763Y055907D02*
G01X001648Y05605D01*
Y05605D02*
G01X001474Y056122D01*
Y056122D02*
G01X001244D01*
X00107Y05605*
Y05605D02*
G01X000955Y055907D01*
Y055907D02*
G01Y055765D01*
X001013Y055622*
X00107Y05555*
Y05555D02*
G01X001186Y055479D01*
X001532Y055336*
Y055336D02*
G01X001648Y055264D01*
Y055264D02*
G01X001705Y055193D01*
Y055193D02*
G01X001763Y05505D01*
Y05505D02*
G01Y054836D01*
Y054836D02*
G01X001648Y054693D01*
X001474Y054622*
Y054622D02*
G01X001244D01*
X00107Y054693*
Y054693D02*
G01X000955Y054836D01*
X002283Y056122D02*
G01Y054622D01*
Y056122D02*
G01X003033D01*
X002283Y055407D02*
G01X002744D01*
X002283Y054622D02*
G01X003033D01*
X004419Y055765D02*
G01X004361Y055907D01*
Y055907D02*
G01X004245Y05605D01*
Y05605D02*
G01X00413Y056122D01*
X003899*
Y056122D02*
G01X003784Y05605D01*
Y05605D02*
G01X003668Y055907D01*
Y055907D02*
G01X00361Y055765D01*
Y055765D02*
G01X003553Y05555D01*
Y05555D02*
G01Y055193D01*
Y055193D02*
G01X00361Y054979D01*
Y054979D02*
G01X003668Y054836D01*
Y054836D02*
G01X003784Y054693D01*
X003899Y054622*
Y054622D02*
G01X00413D01*
X004245Y054693*
Y054693D02*
G01X004361Y054836D01*
X004419Y054979*
X005284Y056122D02*
G01X005169Y05605D01*
Y05605D02*
G01X005054Y055907D01*
Y055907D02*
G01X004996Y055765D01*
X004938Y05555*
Y05555D02*
G01Y055193D01*
Y055193D02*
G01X004996Y054979D01*
X005054Y054836*
X005169Y054693*
Y054693D02*
G01X005284Y054622D01*
Y054622D02*
G01X005515D01*
Y054622D02*
G01X005631Y054693D01*
X005746Y054836*
Y054836D02*
G01X005804Y054979D01*
Y054979D02*
G01X005862Y055193D01*
Y055193D02*
G01Y05555D01*
Y05555D02*
G01X005804Y055765D01*
Y055765D02*
G01X005746Y055907D01*
Y055907D02*
G01X005631Y05605D01*
Y05605D02*
G01X005515Y056122D01*
Y056122D02*
G01X005284D01*
X006381D02*
G01Y054622D01*
Y056122D02*
G01X007189Y054622D01*
Y056122D02*
G01Y054622D01*
X007709Y056122D02*
G01Y054622D01*
Y056122D02*
G01X008113D01*
Y056122D02*
G01X008286Y05605D01*
Y05605D02*
G01X008402Y055907D01*
Y055907D02*
G01X008459Y055765D01*
Y055765D02*
G01X008517Y05555D01*
Y05555D02*
G01Y055193D01*
Y055193D02*
G01X008459Y054979D01*
Y054979D02*
G01X008402Y054836D01*
X008286Y054693*
Y054693D02*
G01X008113Y054622D01*
Y054622D02*
G01X007709D01*
X009499Y056122D02*
G01X009037Y054622D01*
X009499Y056122D02*
G01X00996Y054622D01*
X00921Y055122D02*
G01X009787D01*
X01048Y056122D02*
G01Y054622D01*
Y056122D02*
G01X010999D01*
Y056122D02*
G01X011173Y05605D01*
Y05605D02*
G01X01123Y055979D01*
Y055979D02*
G01X011288Y055836D01*
Y055836D02*
G01Y055693D01*
Y055693D02*
G01X01123Y05555D01*
Y05555D02*
G01X011173Y055479D01*
X010999Y055407*
Y055407D02*
G01X01048D01*
X010884D02*
G01X011288Y054622D01*
X011808Y056122D02*
G01X012269Y055407D01*
Y055407D02*
G01Y054622D01*
X012731Y056122D02*
G01X012269Y055407D01*
X015387Y055907D02*
G01X015271Y05605D01*
Y05605D02*
G01X015098Y056122D01*
Y056122D02*
G01X014867D01*
Y056122D02*
G01X014694Y05605D01*
Y05605D02*
G01X014579Y055907D01*
Y055907D02*
G01Y055765D01*
X014636Y055622*
Y055622D02*
G01X014694Y05555D01*
Y05555D02*
G01X014809Y055479D01*
Y055479D02*
G01X015156Y055336D01*
X015271Y055264*
Y055264D02*
G01X015329Y055193D01*
Y055193D02*
G01X015387Y05505D01*
Y05505D02*
G01Y054836D01*
X015271Y054693*
Y054693D02*
G01X015098Y054622D01*
Y054622D02*
G01X014867D01*
Y054622D02*
G01X014694Y054693D01*
Y054693D02*
G01X014579Y054836D01*
X016253Y056122D02*
G01X016137Y05605D01*
Y05605D02*
G01X016022Y055907D01*
Y055907D02*
G01X015964Y055765D01*
Y055765D02*
G01X015906Y05555D01*
Y05555D02*
G01Y055193D01*
Y055193D02*
G01X015964Y054979D01*
Y054979D02*
G01X016022Y054836D01*
X016137Y054693*
Y054693D02*
G01X016253Y054622D01*
X016484*
X016599Y054693*
Y054693D02*
G01X016714Y054836D01*
Y054836D02*
G01X016772Y054979D01*
Y054979D02*
G01X01683Y055193D01*
Y055193D02*
G01Y05555D01*
Y05555D02*
G01X016772Y055765D01*
Y055765D02*
G01X016714Y055907D01*
Y055907D02*
G01X016599Y05605D01*
Y05605D02*
G01X016484Y056122D01*
X016253*
X017349D02*
G01Y054622D01*
Y054622D02*
G01X018042D01*
X018562Y056122D02*
G01Y054622D01*
Y056122D02*
G01X018966D01*
X019139Y05605*
Y05605D02*
G01X019254Y055907D01*
Y055907D02*
G01X019312Y055765D01*
Y055765D02*
G01X01937Y05555D01*
Y05555D02*
G01Y055193D01*
Y055193D02*
G01X019312Y054979D01*
Y054979D02*
G01X019254Y054836D01*
Y054836D02*
G01X019139Y054693D01*
Y054693D02*
G01X018966Y054622D01*
X018562*
X019889Y056122D02*
G01Y054622D01*
Y056122D02*
G01X02064D01*
X019889Y055407D02*
G01X020351D01*
X019889Y054622D02*
G01X02064D01*
X021159Y056122D02*
G01Y054622D01*
Y056122D02*
G01X021679D01*
Y056122D02*
G01X021852Y05605D01*
Y05605D02*
G01X02191Y055979D01*
X021968Y055836*
Y055693*
Y055693D02*
G01X02191Y05555D01*
Y05555D02*
G01X021852Y055479D01*
Y055479D02*
G01X021679Y055407D01*
Y055407D02*
G01X021159D01*
X021564D02*
G01X021968Y054622D01*
X023815Y056122D02*
G01Y054622D01*
Y056122D02*
G01X024277Y054622D01*
X024739Y056122D02*
G01X024277Y054622D01*
X024739Y056122D02*
G01Y054622D01*
X02572Y056122D02*
G01X025258Y054622D01*
X02572Y056122D02*
G01X026182Y054622D01*
X025431Y055122D02*
G01X026009D01*
X027509Y055907D02*
G01X027394Y05605D01*
Y05605D02*
G01X027221Y056122D01*
X02699*
X026817Y05605*
Y05605D02*
G01X026701Y055907D01*
Y055907D02*
G01Y055765D01*
Y055765D02*
G01X026759Y055622D01*
Y055622D02*
G01X026817Y05555D01*
Y05555D02*
G01X026932Y055479D01*
Y055479D02*
G01X027279Y055336D01*
X027394Y055264*
Y055264D02*
G01X027452Y055193D01*
Y055193D02*
G01X027509Y05505D01*
Y05505D02*
G01Y054836D01*
Y054836D02*
G01X027394Y054693D01*
Y054693D02*
G01X027221Y054622D01*
X02699*
X026817Y054693*
X026701Y054836*
X028029Y056122D02*
G01Y054622D01*
X028837Y056122D02*
G01X028029Y055122D01*
X028318Y055479D02*
G01X028837Y054622D01*
G54D10*
X-012065Y-009525D02*
G01X-006985D01*
X-009525Y-012065D02*
G01Y-006985D01*
X-007747Y-009525D02*
G75*
G03X-007747Y-009525I-001778D01*
X-009271D02*
G03X-009271Y-009525I-000254D01*
X-009017D02*
G03X-009017Y-009525I-000508D01*
X-008763D02*
G03X-008763Y-009525I-000762D01*
X-007493D02*
G03X-007493Y-009525I-002032D01*
X-008001D02*
G03X-008001Y-009525I-001524D01*
X-008255D02*
G03X-008255Y-009525I-00127D01*
X-008509D02*
G03X-008509Y-009525I-001016D01*
X-012065Y059525D02*
G01X-006985D01*
X-009525Y056985D02*
G01Y062065D01*
X-007747Y059525D02*
G03X-007747Y059525I-001778D01*
X-009271D02*
G03X-009271Y059525I-000254D01*
X-009017D02*
G03X-009017Y059525I-000508D01*
X-008763D02*
G03X-008763Y059525I-000762D01*
X-007493D02*
G03X-007493Y059525I-002032D01*
X-008001D02*
G03X-008001Y059525I-001524D01*
X-008255D02*
G03X-008255Y059525I-00127D01*
X-008509D02*
G03X-008509Y059525I-001016D01*
X036985D02*
G01X042065D01*
X039525Y056985D02*
G01Y062065D01*
X041303Y059525D02*
G03X041303Y059525I-001778D01*
X039779D02*
G03X039779Y059525I-000254D01*
X040033D02*
G03X040033Y059525I-000508D01*
X040287D02*
G03X040287Y059525I-000762D01*
X041557D02*
G03X041557Y059525I-002032D01*
X041049D02*
G03X041049Y059525I-001524D01*
X040795D02*
G03X040795Y059525I-00127D01*
X040541D02*
G03X040541Y059525I-001016D01*
M02*
