G04 CAM350 V10.0.1 (Build 316) Date:  Tue Apr 09 14:09:21 2019 *
G04 Database: (Untitled) *
G04 Layer 9: ZGM130-Si7210_BRD.PHO *
%FSTAX33Y33*%
%MOMM*%
%SFA1.000B1.000*%

%MIA0B0*%
%IPPOS*%
%ADD10C,0.12700*%
%LNZGM130-Si7210_BRD.PHO*%
%LPD*%
G54D10*
X0005Y05D02*
G75*
G03X0Y0495J-0005D01*
Y0495D02*
G01Y0005D01*
Y0005D02*
G03X0005Y0I0005D01*
Y0D02*
G01X0295D01*
Y0D02*
G03X03Y0005J0005D01*
Y0005D02*
G01Y0495D01*
Y0495D02*
G03X0295Y05I-0005D01*
Y05D02*
G01X0005D01*
X-012065Y-009525D02*
G01X-006985D01*
X-009525Y-012065D02*
G01Y-006985D01*
X-007747Y-009525D02*
G03X-007747Y-009525I-001778D01*
X-009271D02*
G03X-009271Y-009525I-000254D01*
X-009017D02*
G03X-009017Y-009525I-000508D01*
X-008763D02*
G03X-008763Y-009525I-000762D01*
X-007493D02*
G03X-007493Y-009525I-002032D01*
X-008001D02*
G03X-008001Y-009525I-001524D01*
X-008255D02*
G03X-008255Y-009525I-00127D01*
X-008509D02*
G03X-008509Y-009525I-001016D01*
X-012065Y059525D02*
G01X-006985D01*
X-009525Y056985D02*
G01Y062065D01*
X-007747Y059525D02*
G03X-007747Y059525I-001778D01*
X-009271D02*
G03X-009271Y059525I-000254D01*
X-009017D02*
G03X-009017Y059525I-000508D01*
X-008763D02*
G03X-008763Y059525I-000762D01*
X-007493D02*
G03X-007493Y059525I-002032D01*
X-008001D02*
G03X-008001Y059525I-001524D01*
X-008255D02*
G03X-008255Y059525I-00127D01*
X-008509D02*
G03X-008509Y059525I-001016D01*
X036985D02*
G01X042065D01*
X039525Y056985D02*
G01Y062065D01*
X041303Y059525D02*
G03X041303Y059525I-001778D01*
X039779D02*
G03X039779Y059525I-000254D01*
X040033D02*
G03X040033Y059525I-000508D01*
X040287D02*
G03X040287Y059525I-000762D01*
X041557D02*
G03X041557Y059525I-002032D01*
X041049D02*
G03X041049Y059525I-001524D01*
X040795D02*
G03X040795Y059525I-00127D01*
X040541D02*
G03X040541Y059525I-001016D01*
M02*
