M48
METRIC,LZ
VER,1
FMAT,2
T01C0.3F042B423S6H2000
T02C0.381F042B423S6H2000
T03C0.7F042B423S6H2000
T04C0.75F042B423S6H2000
T05C0.85F042B423S6H2000
DETECT,ON
ATC,ON
%
T01
X00695Y0007
X0007Y0036
Y0056
X005275Y006025
X003875Y00745
X006275Y008125
X000825Y011575
X002975Y012925
X006975Y013225
X000825Y013575
X006975Y01435
Y0153
Y01625
X0007Y0171
X002825Y019525
X0007Y020425
X005275Y02195
X0007Y022225
Y024
Y026
X002725Y02685
X0007Y028625
Y03025
Y031825
X002725Y033275
X005225
X013025Y0333
X012025
X011025
X010025
X009025
X008025
X012525Y03275
X011525
X010525
X013025Y0322
X012025
X011025
X012525Y03165
X011525
X010525
X013025Y0311
X012025
X011025
X010428Y030578
X012525Y03055
X011425Y03045
X013025Y02995
X012025
X00735Y02955
X01Y0289
X01125Y02765
Y02465
X01065Y0234
X011275Y022325
X0087Y02185
X011375Y02115
X013Y02095
X01Y0204
X01265Y019875
X01Y01925
X007675Y016925
X013275Y015425
X01045Y012
X008775Y009825
X011575Y008
X00725Y007375
X0114Y005775
X01045Y004875
X012075Y003825
X010475Y00325
X008675
X012742Y001142
X01495Y00165
X019725Y00325
X0136Y003425
X0174Y0035
X01625Y003825
X01495Y004125
X01625Y005475
X015075Y006275
X01515Y0097
X013775Y009825
X016825Y0121
X018775Y012325
X013775
X015775Y016125
X016825Y019
X013975Y019025
X0196Y0197
X0185Y0204
X01745Y02145
X01425Y02215
Y02465
X01725
X017875Y0254
X019125Y0259
X017875Y0264
X019125Y0269
X017875Y0274
X016Y027725
X017
X013775Y0281
X0145Y02825
X0155Y028275
X0165
X0175
X0192Y02875
X018475Y029
X016925Y0298
X018925
X017925
X016Y029825
X014025Y02995
X017475Y0304
X018475
X019475
X016475
X013525Y03055
X018975Y03095
X017975Y030975
X016975
X014025Y0311
X01625Y031125
X0195Y031475
X017475Y031525
X018475
X013525Y03165
X016625Y031775
X019025Y03205
X017975Y032075
X016Y032175
X014025Y0322
X017225Y032225
X0166Y032625
X013525Y03275
X01875
X017725Y032775
X01625Y033275
X01925Y0333
X01825
X014025
X0172
X023703Y033303
X022678
X021678
X020678
X025953
X022478Y032078
X022553Y030828
X023728Y029653
X025028Y028353
X023775Y027325
X021275
Y024825
X023775
X021275Y022325
X023775
Y019825
X019925Y01495
X0199Y0142
X023025Y013825
X0199Y01345
X0208Y013025
X02065Y010825
Y01
X0248Y00955
Y00875
X02065Y008225
X0248Y00795
Y00645
X0257Y006075
Y004925
X021725Y00325
X0293Y0098
X028025Y01075
X0293Y011775
X027Y013125
X0293Y014275
Y016775
X026275Y017325
X0293Y019275
X026275Y019825
X0293Y021775
X026275Y022325
X0293Y024275
X026275Y024825
Y027325
X0293Y027525
X026478Y028528
X0293Y029275
X027853Y029878
X028003Y031253
X029275Y0313
X026803Y032453
X027453Y033303
T02
X00355Y001275
X0015Y008425
Y009925
X002575Y0229
Y0244
Y0259
X008875Y030675
X011Y019625
X017625Y008925
X019Y007125
X0185Y005025
X019Y0041
X02315Y0033
X026Y015725
T03
X002Y016225
Y017925
T04
X00509Y00127
X02491
T05
X002475Y030225
X005475
M30
